name C:\Users\u0101727\Documents\MyRepositories\upper-imu-dc\Results\main_mocap_tracking\Case_6\FLX01_linearAccelerations.mot
datacolumns 4
datarows 94
range 0.51000000 1.44000000
endheader 
time	radius_imu_x	radius_imu_y	radius_imu_z	
          0.51000000	          1.36547573	          9.80513022	          5.72871913	
          0.52000000	          1.36513804	          9.62045929	          4.66992730	
          0.53000000	          1.49055491	          9.56119747	          4.12385416	
          0.54000000	          1.62131759	          9.53858757	          3.83751066	
          0.55000000	          1.75201216	          9.53386576	          3.68287589	
          0.56000000	          1.91043463	          9.53531863	          3.58835569	
          0.57000000	          2.08541233	          9.54160551	          3.51265757	
          0.58000000	          2.24436601	          9.54180758	          3.44899261	
          0.59000000	          2.37642285	          9.53234499	          3.40551606	
          0.60000000	          2.44075446	          9.53699001	          3.37190530	
          0.61000000	          2.36356803	          9.56401310	          3.33410857	
          0.62000000	          2.13108769	          9.58775052	          3.30229375	
          0.63000000	          1.77862518	          9.60505496	          3.28247753	
          0.64000000	          1.32449483	          9.63537670	          3.26772084	
          0.65000000	          0.79101966	          9.66986917	          3.26789644	
          0.66000000	          0.23190802	          9.68735870	          3.29877866	
          0.67000000	         -0.28685615	          9.70252519	          3.35900644	
          0.68000000	         -0.70838913	          9.74841232	          3.44489616	
          0.69000000	         -0.99831399	          9.82567096	          3.56312461	
          0.70000000	         -1.15629758	          9.90933730	          3.70933496	
          0.71000000	         -1.20281378	          9.98786647	          3.86189519	
          0.72000000	         -1.16634944	         10.07381372	          3.99517960	
          0.73000000	         -1.07325936	         10.17843908	          4.08987081	
          0.74000000	         -0.93523408	         10.29294248	          4.13412797	
          0.75000000	         -0.74776724	         10.40403471	          4.12507491	
          0.76000000	         -0.51430620	         10.50629928	          4.06816229	
          0.77000000	         -0.26349104	         10.59398760	          3.97233483	
          0.78000000	         -0.02736227	         10.66183186	          3.85113010	
          0.79000000	          0.17261266	         10.71629921	          3.72057677	
          0.80000000	          0.30981590	         10.76795582	          3.59129736	
          0.81000000	          0.35741728	         10.81245392	          3.47082910	
          0.82000000	          0.30756301	         10.83192265	          3.36968438	
          0.83000000	          0.16998240	         10.81324211	          3.29949909	
          0.84000000	         -0.03594518	         10.75831504	          3.27012826	
          0.85000000	         -0.28647650	         10.68120792	          3.28850248	
          0.86000000	         -0.55920528	         10.60167497	          3.35673349	
          0.87000000	         -0.83447844	         10.54062363	          3.47101688	
          0.88000000	         -1.09287104	         10.51494002	          3.62296494	
          0.89000000	         -1.31513677	         10.53025317	          3.80144086	
          0.90000000	         -1.48711522	         10.57833350	          3.99282436	
          0.91000000	         -1.60081011	         10.64192742	          4.18011951	
          0.92000000	         -1.64717986	         10.70652421	          4.34753645	
          0.93000000	         -1.62706703	         10.76519408	          4.48571987	
          0.94000000	         -1.57289093	         10.81572247	          4.59496546	
          0.95000000	         -1.51628987	         10.85070144	          4.68182195	
          0.96000000	         -1.43377778	         10.85470969	          4.75305658	
          0.97000000	         -1.25993460	         10.81582890	          4.81482793	
          0.98000000	         -0.96551911	         10.73900386	          4.87230533	
          0.99000000	         -0.60545911	         10.64607329	          4.92607407	
          1.00000000	         -0.24212312	         10.55756946	          4.97569218	
          1.01000000	          0.13715711	         10.48128034	          5.02633781	
          1.02000000	          0.55299128	         10.42117689	          5.08277902	
          1.03000000	          0.96161570	         10.37820385	          5.14092643	
          1.04000000	          1.31024367	         10.34112388	          5.19499935	
          1.05000000	          1.58430570	         10.29247152	          5.24563459	
          1.06000000	          1.76535331	         10.22249828	          5.29322725	
          1.07000000	          1.82266771	         10.12849474	          5.33545470	
          1.08000000	          1.75677094	         10.00596194	          5.37413372	
          1.09000000	          1.60044544	          9.85342439	          5.41468585	
          1.10000000	          1.39274411	          9.68630889	          5.46088040	
          1.11000000	          1.16996376	          9.53425077	          5.51421303	
          1.12000000	          0.95987573	          9.41870424	          5.57521315	
          1.13000000	          0.77089780	          9.33658191	          5.64320347	
          1.14000000	          0.59398519	          9.26553097	          5.71680787	
          1.15000000	          0.41861951	          9.18178548	          5.79545297	
          1.16000000	          0.24402066	          9.07352001	          5.87869704	
          1.17000000	          0.08153261	          8.94292843	          5.96387916	
          1.18000000	         -0.05650902	          8.79426232	          6.04688637	
          1.19000000	         -0.17544337	          8.61958122	          6.12556903	
          1.20000000	         -0.29095896	          8.40534178	          6.20147397	
          1.21000000	         -0.40077301	          8.15685737	          6.27825430	
          1.22000000	         -0.47734382	          7.90947349	          6.35841051	
          1.23000000	         -0.49080232	          7.70476429	          6.44210429	
          1.24000000	         -0.43812038	          7.55600622	          6.52669445	
          1.25000000	         -0.34935780	          7.44456783	          6.60771917	
          1.26000000	         -0.26645799	          7.34234096	          6.68139464	
          1.27000000	         -0.22495090	          7.22622577	          6.74454823	
          1.28000000	         -0.24703595	          7.08045005	          6.79518931	
          1.29000000	         -0.33502317	          6.89938250	          6.83603118	
          1.30000000	         -0.47356563	          6.69011870	          6.87353560	
          1.31000000	         -0.63821302	          6.46933761	          6.91316930	
          1.32000000	         -0.79554906	          6.25615485	          6.95781085	
          1.33000000	         -0.90880332	          6.06315844	          7.01002636	
          1.34000000	         -0.95570544	          5.89058906	          7.07360686	
          1.35000000	         -0.93475521	          5.73196852	          7.15152431	
          1.36000000	         -0.85794073	          5.58801307	          7.24473536	
          1.37000000	         -0.74843972	          5.47048607	          7.35348182	
          1.38000000	         -0.65605504	          5.38359131	          7.47345916	
          1.39000000	         -0.65760176	          5.30781569	          7.59190642	
          1.40000000	         -0.79823323	          5.21609833	          7.69672986	
          1.41000000	         -1.04985640	          5.09792715	          7.78661155	
          1.42000000	         -1.34490379	          4.95876496	          7.86616272	
          1.43000000	         -1.62147514	          4.80751468	          7.93877567	
          1.44000000	         -1.83581052	          4.65052498	          8.00655885	
